<svg xmlns="http://www.w3.org/2000/svg" version="1.1" viewBox="-5.0 -10.0 110.0 135.0">
 <g>
  <path d="m74.172 6.25h-48.344c-5.5312 0.011719-10.012 4.5-10.016 10.031v67.438c0.003906 5.5312 4.4844 10.02 10.016 10.031h48.344c5.5312-0.011719 10.012-4.5 10.016-10.031v-67.438c-0.003906-5.5312-4.4844-10.02-10.016-10.031zm-51.047 80.312v-33.75c0.003906-0.86328 0.69922-1.5586 1.5625-1.5625h50.625c0.86328 0.003906 1.5586 0.69922 1.5625 1.5625v33.75c-0.003906 0.86328-0.69922 1.5586-1.5625 1.5625h-50.625c-0.86328-0.003906-1.5586-0.69922-1.5625-1.5625zm53.75-39.078c-0.003906 0.86328-0.69922 1.5586-1.5625 1.5625h-50.625c-0.86328-0.003906-1.5586-0.69922-1.5625-1.5625v-33.75c0-0.41406 0.16406-0.8125 0.45703-1.1055 0.29297-0.29297 0.69141-0.45703 1.1055-0.45703h50.625c0.41406 0 0.8125 0.16406 1.1055 0.45703 0.29297 0.29297 0.45703 0.69141 0.45703 1.1055z"/>
  <path d="m26.25 68.125h22.188v-13.75h-22.188zm7.1719-8.2344h2.5156v-2.5156c0.011719-0.85547 0.70703-1.5391 1.5625-1.5391s1.5508 0.68359 1.5625 1.5391v2.5156h2.5156c0.86328 0 1.5625 0.69922 1.5625 1.5625s-0.69922 1.5625-1.5625 1.5625h-2.5156v2.5156c0 0.86328-0.69922 1.5625-1.5625 1.5625s-1.5625-0.69922-1.5625-1.5625v-2.5156h-2.5156c-0.85547-0.011719-1.5391-0.70703-1.5391-1.5625s0.68359-1.5508 1.5391-1.5625z"/>
  <path d="m26.25 85h22.188v-13.75h-22.188zm7.5781-10.766c1.5898-1.25 2.7383 0.87891 3.6562 1.8594l1.4062-1.7031c0.55078-0.65234 1.5234-0.73828 2.1836-0.19531 0.65625 0.54297 0.75781 1.5156 0.22266 2.1797l-1.75 2.125 1.7969 2.1094c0.53906 0.65625 0.45312 1.625-0.19141 2.1797-0.64844 0.55078-1.6172 0.48438-2.1836-0.14844l-1.4375-1.6875-1.4219 1.7188c-0.55469 0.64453-1.5195 0.73047-2.1758 0.1875-0.65625-0.53906-0.75781-1.5078-0.23047-2.1719l1.7656-2.1406-1.8125-2.1094c-0.26953-0.31641-0.40234-0.72266-0.37109-1.1367 0.03125-0.41406 0.22656-0.79688 0.54297-1.0664z"/>
  <path d="m51.562 85h22.188v-13.75h-22.188zm6.8594-10.672h8.1562c0.85547 0.011719 1.5391 0.70703 1.5391 1.5625s-0.68359 1.5508-1.5391 1.5625h-8.1562c-0.85547-0.011719-1.5391-0.70703-1.5391-1.5625s0.68359-1.5508 1.5391-1.5625zm0 4.4531h8.1562c0.86328 0 1.5625 0.69922 1.5625 1.5625s-0.69922 1.5625-1.5625 1.5625h-8.1562c-0.85547-0.011719-1.5391-0.70703-1.5391-1.5625s0.68359-1.5508 1.5391-1.5625z"/>
  <path d="m51.562 68.125h22.188v-13.75h-22.188zm6.8594-8.2344h8.1562c0.85547 0.011719 1.5391 0.70703 1.5391 1.5625s-0.68359 1.5508-1.5391 1.5625h-8.1562c-0.85547-0.011719-1.5391-0.70703-1.5391-1.5625s0.68359-1.5508 1.5391-1.5625z"/>
  <path d="m26.25 45.922h47.5v-30.625h-47.5zm37.766-8.0938c-0.027344 2.9961-2.4648 5.4102-5.4609 5.4102-2.9961 0-5.4336-2.4141-5.4609-5.4102 0.027344-2.9961 2.4648-5.4102 5.4609-5.4102 2.9961 0 5.4336 2.4141 5.4609 5.4102zm-7.5312-16.984c0.35938 0.21094 0.61719 0.55469 0.71875 0.95703 0.10547 0.40234 0.042969 0.82812-0.17188 1.1836l-11.719 19.547c-0.44531 0.74219-1.4062 0.98047-2.1484 0.53906-0.74219-0.44531-0.98437-1.4062-0.53906-2.1484l11.719-19.547c0.21484-0.35547 0.55859-0.60938 0.96094-0.71094 0.40234-0.097656 0.82422-0.035156 1.1797 0.17969zm-15.031-1.6406c2.9883 0.035156 5.3945 2.4727 5.3945 5.4609 0 2.9922-2.4062 5.4258-5.3945 5.4609-2.9883-0.035156-5.3945-2.4727-5.3945-5.4609 0-2.9922 2.4062-5.4258 5.3945-5.4609z"/>
  <path d="m41.453 27c1.2734-0.023438 2.293-1.0625 2.293-2.3359 0-1.2734-1.0195-2.3125-2.293-2.3359-1.2734 0.023437-2.293 1.0625-2.293 2.3359 0 1.2734 1.0195 2.3125 2.293 2.3359z"/>
  <path d="m58.547 40.172c1.2812-0.015625 2.3086-1.0547 2.3086-2.3359s-1.0273-2.3203-2.3086-2.3359c-1.2812 0.015625-2.3086 1.0547-2.3086 2.3359s1.0273 2.3203 2.3086 2.3359z"/>
 </g>
<text x="0.0" y="117.5" font-size="5.0" font-weight="bold" font-family="Arbeit Regular, Helvetica, Arial-Unicode, Arial, Sans-serif" fill="#000000">Created by metami septiana</text><text x="0.0" y="122.5" font-size="5.0" font-weight="bold" font-family="Arbeit Regular, Helvetica, Arial-Unicode, Arial, Sans-serif" fill="#000000">from Noun Project</text></svg>