<svg xmlns="http://www.w3.org/2000/svg" version="1.1" viewBox="-5.0 -10.0 110.0 135.0">
 <g>
  <path d="m74.164 6.25h-48.328c-5.5391 0.007812-10.023 4.4922-10.031 10.027v67.445c0.007812 5.5352 4.4922 10.02 10.031 10.027h48.328c5.5391-0.007812 10.023-4.4922 10.031-10.027v-67.445c-0.007812-5.5352-4.4922-10.02-10.031-10.027zm6.9023 77.473h0.003906c-0.003906 3.8086-3.0938 6.8984-6.9062 6.9023h-48.328c-3.8125-0.003906-6.9023-3.0938-6.9062-6.9023v-67.445c0.003906-3.8086 3.0938-6.8984 6.9062-6.9023h48.328c3.8125 0.003906 6.9023 3.0938 6.9062 6.9023z"/>
  <path d="m75.312 51.254h-50.625c-0.41406 0-0.8125 0.16406-1.1055 0.45703-0.29297 0.29297-0.45703 0.69141-0.45703 1.1055v33.75c0 0.41406 0.16406 0.80859 0.45703 1.1016s0.69141 0.46094 1.1055 0.46094h50.625c0.41406 0 0.8125-0.16797 1.1055-0.46094s0.45703-0.6875 0.45703-1.1016v-33.75c0-0.41406-0.16406-0.8125-0.45703-1.1055-0.29297-0.29297-0.69141-0.45703-1.1055-0.45703zm-1.5625 16.875h-22.188v-13.75h22.188zm-25.312-13.75v13.75h-22.188v-13.75zm-22.188 16.875h22.188v13.75h-22.188zm25.312 13.75v-13.75h22.188v13.75z"/>
  <path d="m75.312 12.164h-50.625c-0.41406 0-0.8125 0.16797-1.1055 0.46094s-0.45703 0.6875-0.45703 1.1016v33.754c0 0.41406 0.16406 0.8125 0.45703 1.1055 0.29297 0.29297 0.69141 0.45703 1.1055 0.45703h50.625c0.41406 0 0.8125-0.16406 1.1055-0.45703 0.29297-0.29297 0.45703-0.69141 0.45703-1.1055v-33.754c0-0.41406-0.16406-0.80859-0.45703-1.1016s-0.69141-0.46094-1.1055-0.46094zm-1.5625 33.75-47.5 0.003907v-30.629h47.5z"/>
  <path d="m58.418 63.016h8.1641c0.84766-0.015625 1.5312-0.71094 1.5312-1.5625s-0.68359-1.5469-1.5312-1.5625h-8.1641c-0.84766 0.015625-1.5312 0.71094-1.5312 1.5625s0.68359 1.5469 1.5312 1.5625z"/>
  <path d="m66.582 74.332h-8.1641c-0.84766 0.015625-1.5312 0.71094-1.5312 1.5625 0 0.84766 0.68359 1.543 1.5312 1.5625h8.1641c0.84766-0.019531 1.5312-0.71484 1.5312-1.5625 0-0.85156-0.68359-1.5469-1.5312-1.5625z"/>
  <path d="m41.34 80.613-1.7969-2.1016 1.7617-2.1328h-0.003907c0.55078-0.66797 0.45703-1.6523-0.20703-2.2031-1.6094-1.2461-2.7148 0.92578-3.6133 1.9219l-1.4453-1.6836c-0.56641-0.63672-1.5391-0.70312-2.1836-0.14844-0.64844 0.55078-0.73047 1.5234-0.19141 2.1797l1.7969 2.1016-1.7617 2.1328h0.003907c-0.53125 0.66797-0.42969 1.6367 0.22656 2.1797 0.66016 0.53906 1.6289 0.45703 2.1836-0.1875l1.4141-1.7109 1.4453 1.6875-0.003906-0.003907c0.56641 0.63672 1.5352 0.70312 2.1836 0.14844 0.64453-0.55078 0.73047-1.5234 0.19141-2.1797z"/>
  <path d="m66.582 78.789h-8.1641c-0.84766 0.015626-1.5312 0.71094-1.5312 1.5625 0 0.85156 0.68359 1.543 1.5312 1.5625h8.1641c0.84766-0.019531 1.5312-0.71484 1.5312-1.5625 0-0.85156-0.68359-1.5469-1.5312-1.5625z"/>
  <path d="m33.418 63.016h2.5195v2.5195c0 0.85938 0.69922 1.5625 1.5625 1.5625s1.5625-0.70312 1.5625-1.5625v-2.5195h2.5195c0.85938 0 1.5625-0.69922 1.5625-1.5625s-0.70312-1.5625-1.5625-1.5625h-2.5195v-2.5156c0-0.86328-0.69922-1.5625-1.5625-1.5625s-1.5625 0.69922-1.5625 1.5625v2.5195l-2.5195-0.003906c-0.84766 0.015625-1.5312 0.71094-1.5312 1.5625s0.68359 1.5469 1.5312 1.5625z"/>
  <path d="m43.168 43.066c0.35547 0.21484 0.78125 0.27734 1.1836 0.17578 0.40234-0.097657 0.74609-0.35547 0.96094-0.71094l11.719-19.551h-0.003906c0.44141-0.74219 0.19922-1.6992-0.53906-2.1406s-1.6953-0.20312-2.1406 0.53516l-11.719 19.551h0.003906c-0.21484 0.35547-0.27734 0.78125-0.17578 1.1836 0.10156 0.40234 0.35547 0.74609 0.71094 0.95703z"/>
  <path d="m41.453 30.129c2.9922-0.03125 5.3984-2.4688 5.3984-5.4609 0-2.9883-2.4062-5.4258-5.3984-5.457-2.9922 0.03125-5.3984 2.4688-5.3984 5.457 0 2.9922 2.4062 5.4297 5.3984 5.4609zm0-7.7969v0.003907c1.2734 0.015624 2.3008 1.0586 2.3008 2.332 0 1.2773-1.0273 2.3164-2.3008 2.3359-1.2773-0.019531-2.3008-1.0586-2.3008-2.3359 0-1.2734 1.0234-2.3125 2.3008-2.332z"/>
  <path d="m53.09 37.828c0.03125 2.9922 2.4648 5.4023 5.457 5.4023 2.9961 0 5.4297-2.4102 5.4609-5.4023-0.03125-2.9922-2.4648-5.3984-5.4609-5.3984-2.9922 0-5.4258 2.4062-5.457 5.3984zm5.457-2.332c1.2773 0.015625 2.3047 1.0586 2.3047 2.3359 0 1.2734-1.0273 2.3164-2.3047 2.332-1.2773-0.015624-2.3008-1.0586-2.3008-2.332 0-1.2773 1.0234-2.3203 2.3008-2.3359z"/>
 </g>
<text x="0.0" y="117.5" font-size="5.0" font-weight="bold" font-family="Arbeit Regular, Helvetica, Arial-Unicode, Arial, Sans-serif" fill="#000000">Created by metami septiana</text><text x="0.0" y="122.5" font-size="5.0" font-weight="bold" font-family="Arbeit Regular, Helvetica, Arial-Unicode, Arial, Sans-serif" fill="#000000">from Noun Project</text></svg>