<svg xmlns="http://www.w3.org/2000/svg" xmlns:xlink="http://www.w3.org/1999/xlink" width="489" zoomAndPan="magnify" viewBox="0 0 366.75 254.250006" height="339" preserveAspectRatio="xMidYMid meet" version="1.0"><defs><clipPath id="bef634760e"><path d="M 68.121094 40.273438 L 297.691406 40.273438 L 297.691406 212.265625 L 68.121094 212.265625 Z M 68.121094 40.273438 " clip-rule="nonzero"/></clipPath></defs><g clip-path="url(#bef634760e)"><path fill="#000000" d="M 278.5625 40.273438 L 87.253906 40.273438 C 76.730469 40.273438 68.121094 48.875 68.121094 59.382812 L 68.121094 193.152344 C 68.121094 203.664062 76.730469 212.265625 87.253906 212.265625 L 278.5625 212.265625 C 289.082031 212.265625 297.691406 203.664062 297.691406 193.152344 L 297.691406 59.382812 C 297.691406 48.875 289.082031 40.273438 278.5625 40.273438 Z M 135.078125 78.492188 C 145.65625 78.492188 154.210938 87.050781 154.210938 97.605469 C 154.210938 108.160156 145.65625 116.714844 135.078125 116.714844 C 124.503906 116.714844 115.949219 108.160156 115.949219 97.605469 C 115.949219 87.050781 124.503906 78.492188 135.078125 78.492188 Z M 173.34375 174.046875 L 96.816406 174.046875 L 96.816406 154.941406 C 96.816406 144.386719 105.390625 135.835938 115.949219 135.835938 L 154.210938 135.824219 C 164.785156 135.824219 173.34375 144.378906 173.34375 154.933594 Z M 268.996094 174.046875 L 192.472656 174.046875 L 192.472656 154.933594 L 268.996094 154.933594 Z M 268.996094 135.824219 L 192.472656 135.824219 L 192.472656 116.714844 L 268.996094 116.714844 Z M 268.996094 97.605469 L 173.34375 97.605469 L 173.34375 78.492188 L 268.996094 78.492188 Z M 268.996094 97.605469 " fill-opacity="1" fill-rule="nonzero"/></g></svg>