<svg xmlns="http://www.w3.org/2000/svg" xmlns:xlink="http://www.w3.org/1999/xlink" width="489" zoomAndPan="magnify" viewBox="0 0 366.75 254.250006" height="339" preserveAspectRatio="xMidYMid meet" version="1.0"><defs><clipPath id="a100c15c5c"><path d="M 68.121094 29.074219 L 297.691406 29.074219 L 297.691406 223.5 L 68.121094 223.5 Z M 68.121094 29.074219 " clip-rule="nonzero"/></clipPath></defs><g clip-path="url(#a100c15c5c)"><path fill="#000000" d="M 211.503906 199.535156 C 213.960938 204.066406 218.03125 209.988281 223.484375 211.054688 C 227.121094 211.769531 229.839844 211.042969 230.949219 215.566406 C 232.378906 221.382812 229.597656 223.328125 224.324219 223.335938 L 145.019531 223.347656 C 142.917969 223.347656 140.753906 223.457031 138.660156 223.335938 C 134.351562 223.09375 133.433594 215.363281 135.671875 212.632812 C 139.128906 208.414062 145.550781 216.011719 154.601562 198.296875 C 155.054688 197.414062 155.46875 195.792969 156.0625 195.105469 L 84.117188 194.847656 C 81.933594 194.847656 79.496094 195.070312 77.34375 194.726562 L 77.121094 194.6875 C 72.292969 193.953125 68.269531 189.46875 68.117188 184.574219 L 68.117188 39.097656 C 68.164062 37.914062 68.53125 36.585938 69.023438 35.507812 C 71.765625 29.519531 77.402344 29.332031 82.898438 29.320312 L 91.648438 29.304688 L 280.984375 29.292969 C 283.367188 29.289062 285.878906 29.132812 288.242188 29.363281 C 293.480469 29.871094 297.507812 35.027344 297.5625 40.105469 L 297.578125 179.894531 C 297.578125 181.765625 297.691406 183.71875 297.464844 185.578125 C 296.992188 189.484375 293.347656 193.832031 289.359375 194.539062 C 286.378906 195.066406 283.167969 194.839844 280.148438 194.839844 L 209.265625 194.980469 C 209.667969 195.519531 209.757812 196.023438 210.035156 196.617188 Z M 77.882812 38.691406 L 77.6875 165.128906 L 287.226562 165.117188 L 287.953125 45.070312 C 287.945312 37.222656 288.769531 38.683594 280.273438 38.683594 Z M 182.617188 175.242188 C 172.90625 176.429688 174.527344 188.175781 182.953125 188.835938 C 192.0625 187.792969 191.230469 174.679688 182.617188 175.242188 Z M 182.617188 175.242188 " fill-opacity="1" fill-rule="nonzero"/></g><path fill="#000000" d="M 185.796875 154.515625 L 180.148438 154.554688 C 179.28125 154.515625 178.1875 154.496094 177.386719 154.140625 L 176.832031 153.898438 C 172.230469 151.746094 175.625 143.183594 170.394531 141.28125 L 161.957031 137.820312 C 158.929688 138.726562 152.542969 144.964844 150.296875 143.992188 C 148.433594 143.183594 141.804688 135.949219 141.230469 134.011719 C 140.621094 131.957031 145.566406 124.304688 146.765625 122.203125 C 145.925781 120.6875 145.148438 119.117188 144.46875 117.523438 C 143.046875 114.199219 143.3125 113.117188 139.464844 112.238281 L 134.539062 111.132812 C 128.816406 109.566406 129.6875 108.371094 129.6875 103.378906 C 129.6875 101.683594 129.125 96.824219 130.203125 95.480469 C 132.117188 93.09375 139.699219 91.957031 142.625 91.503906 L 146.671875 81.542969 L 141.941406 72.980469 C 141.4375 71.933594 140.722656 70.671875 141.089844 69.480469 C 141.933594 66.734375 148.402344 61.6875 151.066406 60.382812 C 152.804688 61.066406 154.308594 62.074219 155.871094 63.070312 L 161.816406 66.949219 C 165.28125 65.484375 168.582031 63.96875 172.152344 62.753906 C 172.546875 62.617188 172.53125 61.878906 172.628906 61.507812 L 173.726562 56.804688 C 174.613281 52.65625 174.910156 50.457031 179.566406 50.253906 L 186.1875 50.269531 C 187.09375 50.277344 188.472656 50.113281 189.292969 50.515625 C 193.09375 52.386719 191.472656 61.777344 194.113281 63.058594 C 195.890625 63.925781 197.875 64.421875 199.738281 65.089844 L 203.109375 66.292969 C 204.367188 66.730469 204.203125 66.6875 205.394531 65.996094 L 210.460938 62.828125 C 211.964844 61.894531 213.917969 60.28125 215.726562 61.191406 C 217.785156 62.226562 223.945312 67.445312 224.609375 69.679688 C 225.152344 71.5 223.382812 73.832031 222.578125 75.347656 L 218.882812 82.121094 C 220.648438 84.894531 221.8125 88.246094 222.816406 91.359375 L 228.949219 92.652344 C 235.515625 94.164062 235.871094 94.347656 235.871094 100.183594 C 235.871094 112.289062 235.886719 109.714844 223.804688 112.519531 C 222.558594 112.808594 222.476562 114.078125 222.023438 115.148438 C 221.050781 117.445312 219.859375 119.527344 218.558594 121.648438 C 219.765625 124.082031 225.410156 131.964844 224.292969 134.453125 C 223.03125 137.257812 217.171875 142.96875 214.558594 144.058594 C 210.429688 142.863281 207.722656 139.726562 204.011719 137.84375 C 203.371094 137.972656 193.34375 141.9375 193.296875 142 C 193.175781 142.15625 193.054688 142.855469 192.996094 143.074219 L 191.632812 149.289062 C 190.707031 153 189.726562 154.296875 185.796875 154.515625 Z M 181.421875 81.226562 C 175.71875 81.667969 170.503906 84.023438 166.746094 88.433594 C 154.480469 102.828125 166.074219 124.449219 184.441406 123.109375 C 190.699219 122.398438 195.582031 119.636719 199.539062 114.6875 C 210.324219 101.179688 199.101562 79.441406 181.421875 81.226562 Z M 181.421875 81.226562 " fill-opacity="1" fill-rule="nonzero"/></svg>