<svg xmlns="http://www.w3.org/2000/svg" xmlns:xlink="http://www.w3.org/1999/xlink" width="489" zoomAndPan="magnify" viewBox="0 0 366.75 254.250006" height="339" preserveAspectRatio="xMidYMid meet" version="1.0"><defs><clipPath id="5f8e844796"><path d="M 98.128906 29.445312 L 267.878906 29.445312 L 267.878906 223.125 L 98.128906 223.125 Z M 98.128906 29.445312 " clip-rule="nonzero"/></clipPath></defs><g clip-path="url(#5f8e844796)"><path fill="#000000" d="M 193.363281 58.21875 L 193.363281 43.664062 L 205.199219 43.664062 C 209.113281 43.664062 212.304688 40.476562 212.304688 36.566406 C 212.304688 32.65625 209.113281 29.507812 205.199219 29.507812 L 167.355469 29.507812 C 163.4375 29.507812 160.246094 32.695312 160.246094 36.605469 C 160.246094 40.519531 163.4375 43.703125 167.355469 43.703125 L 179.1875 43.703125 L 179.1875 58.097656 C 136.335938 61.121094 102.371094 96.890625 102.371094 140.4375 C 102.371094 186.003906 139.488281 223.058594 185.125 223.058594 C 230.761719 223.058594 267.878906 186.003906 267.878906 140.4375 C 267.878906 97.695312 235.164062 62.371094 193.363281 58.21875 Z M 191.019531 142.574219 L 191.019531 72.25 C 226.078125 75.234375 253.703125 104.671875 253.703125 140.4375 C 253.703125 153.097656 250.230469 164.996094 244.171875 175.195312 Z M 105.925781 92.089844 C 104.105469 92.089844 102.289062 91.40625 100.917969 90.035156 C 98.128906 87.253906 98.128906 82.777344 100.917969 80.035156 L 123.414062 57.574219 C 126.199219 54.792969 130.683594 54.792969 133.429688 57.574219 C 136.214844 60.355469 136.214844 64.832031 133.429688 67.574219 L 110.933594 90.035156 C 109.558594 91.40625 107.742188 92.089844 105.925781 92.089844 Z M 105.925781 92.089844 " fill-opacity="1" fill-rule="nonzero"/></g></svg>