<svg xmlns="http://www.w3.org/2000/svg" xmlns:xlink="http://www.w3.org/1999/xlink" width="400" zoomAndPan="magnify" viewBox="0 0 300 299.999988" height="400" preserveAspectRatio="xMidYMid meet" version="1.0"><defs><clipPath id="dc774d00b8"><path d="M 34.800781 29.203125 L 265.027344 29.203125 L 265.027344 259.453125 L 34.800781 259.453125 Z M 34.800781 29.203125 " clip-rule="nonzero"/></clipPath></defs><g clip-path="url(#dc774d00b8)"><path fill="#000000" d="M 149.199219 100.585938 C 173.148438 100.136719 192.90625 119.199219 193.355469 143.152344 C 193.355469 143.582031 193.355469 143.988281 193.355469 144.417969 C 193.625 168.371094 174.4375 188.007812 150.484375 188.273438 C 126.535156 188.539062 106.898438 169.351562 106.632812 145.402344 C 106.632812 145.074219 106.632812 144.746094 106.632812 144.417969 C 106.367188 120.589844 125.367188 101.015625 149.199219 100.585938 Z M 153.839844 29.304688 C 147.378906 29.082031 140.894531 29.40625 134.492188 30.265625 C 132.222656 30.574219 130.359375 32.167969 129.683594 34.335938 L 123.304688 55.117188 C 122.75 56.878906 121.402344 58.289062 119.664062 58.902344 C 116.65625 59.984375 113.710938 61.191406 110.828125 62.5625 C 109.148438 63.382812 107.1875 63.339844 105.550781 62.460938 L 86.363281 52.273438 C 84.339844 51.210938 81.882812 51.414062 80.085938 52.808594 C 71.863281 59.046875 64.539062 66.386719 58.28125 74.589844 C 56.890625 76.410156 56.683594 78.84375 57.75 80.871094 L 67.957031 100.074219 C 68.835938 101.691406 68.917969 103.65625 68.160156 105.332031 C 66.769531 108.214844 65.542969 111.160156 64.476562 114.167969 C 63.863281 115.925781 62.453125 117.277344 60.675781 117.808594 L 39.914062 124.210938 C 37.726562 124.867188 36.128906 126.746094 35.84375 128.996094 C 34.453125 139.246094 34.453125 149.59375 35.84375 159.839844 C 36.128906 162.089844 37.726562 163.972656 39.914062 164.628906 L 60.675781 171.027344 C 62.453125 171.5625 63.863281 172.910156 64.476562 174.671875 C 65.542969 177.675781 66.769531 180.621094 68.160156 183.507812 C 68.917969 185.183594 68.835938 187.148438 67.957031 188.761719 L 57.75 207.96875 C 56.683594 209.972656 56.890625 212.425781 58.28125 214.246094 C 64.539062 222.449219 71.863281 229.773438 80.085938 236.03125 C 81.882812 237.421875 84.339844 237.605469 86.363281 236.5625 L 105.550781 226.378906 C 107.1875 225.496094 109.148438 225.457031 110.828125 226.253906 C 113.710938 227.625 116.65625 228.851562 119.664062 229.914062 C 121.402344 230.527344 122.75 231.941406 123.304688 233.699219 L 129.683594 254.480469 C 130.359375 256.667969 132.222656 258.265625 134.492188 258.550781 C 144.71875 259.941406 155.089844 259.941406 165.316406 258.550781 C 167.566406 258.265625 169.445312 256.667969 170.121094 254.480469 L 176.503906 233.699219 C 177.054688 231.941406 178.40625 230.527344 180.144531 229.914062 C 183.152344 228.851562 186.117188 227.625 188.980469 226.253906 C 190.65625 225.457031 192.601562 225.496094 194.238281 226.378906 L 213.441406 236.5625 C 215.46875 237.605469 217.921875 237.421875 219.722656 236.03125 C 227.945312 229.773438 235.265625 222.449219 241.527344 214.246094 C 242.917969 212.425781 243.121094 209.972656 242.058594 207.96875 L 231.871094 188.761719 C 230.972656 187.148438 230.910156 185.183594 231.667969 183.507812 C 233.039062 180.621094 234.265625 177.675781 235.328125 174.671875 C 235.941406 172.910156 237.351562 171.5625 239.132812 171.027344 L 259.914062 164.628906 C 262.082031 163.953125 263.675781 162.089844 263.984375 159.839844 C 265.355469 149.59375 265.355469 139.246094 263.984375 128.996094 C 263.675781 126.746094 262.082031 124.867188 259.914062 124.210938 L 239.132812 117.808594 C 237.351562 117.277344 235.941406 115.925781 235.328125 114.167969 C 234.265625 111.160156 233.039062 108.214844 231.667969 105.332031 C 230.910156 103.65625 230.972656 101.691406 231.871094 100.074219 L 242.058594 80.871094 C 243.121094 78.84375 242.917969 76.410156 241.527344 74.589844 C 235.265625 66.386719 227.945312 59.046875 219.722656 52.808594 C 217.921875 51.414062 215.46875 51.210938 213.441406 52.273438 L 194.238281 62.460938 C 192.601562 63.339844 190.65625 63.382812 188.980469 62.582031 C 186.117188 61.214844 183.152344 59.984375 180.144531 58.921875 C 178.40625 58.308594 177.054688 56.898438 176.503906 55.117188 L 170.121094 34.359375 C 169.445312 32.167969 167.566406 30.574219 165.316406 30.265625 C 161.511719 29.753906 157.6875 29.429688 153.839844 29.304688 " fill-opacity="1" fill-rule="nonzero"/></g></svg>