<svg xmlns="http://www.w3.org/2000/svg" viewBox="0 0 32 40" x="0px" y="0px"><g><path d="M30,9.8286V27a3.0033,3.0033,0,0,1-3,3H25V20a3,3,0,0,0-3-3H10a3,3,0,0,0-3,3V30H5a3.0033,3.0033,0,0,1-3-3V5A3.0033,3.0033,0,0,1,5,2h5V7a3,3,0,0,0,3,3h6a3,3,0,0,0,3-3V2h.1714a2.98,2.98,0,0,1,2.1216.8789L29.1211,7.707A2.98,2.98,0,0,1,30,9.8286ZM12,2V7a1,1,0,0,0,1,1h6a1,1,0,0,0,1-1V2ZM23,20V30H9V20a1,1,0,0,1,1-1H22A1,1,0,0,1,23,20Zm-2,5H11a1,1,0,0,0,0,2H21A1,1,0,0,0,21,25Zm0-3H11a1,1,0,0,0,0,2H21A1,1,0,0,0,21,22Z"/></g><text x="0" y="47" fill="#000000" font-size="5px" font-weight="bold" font-family="'Helvetica Neue', Helvetica, Arial-Unicode, Arial, Sans-serif">Created by Anconer Design</text><text x="0" y="52" fill="#000000" font-size="5px" font-weight="bold" font-family="'Helvetica Neue', Helvetica, Arial-Unicode, Arial, Sans-serif">from the Noun Project</text></svg>