<svg xmlns="http://www.w3.org/2000/svg" xmlns:xlink="http://www.w3.org/1999/xlink" width="400" zoomAndPan="magnify" viewBox="0 0 300 299.999988" height="400" preserveAspectRatio="xMidYMid meet" version="1.0"><defs><clipPath id="09456feb2f"><path d="M 34.800781 33 L 262 33 L 262 260 L 34.800781 260 Z M 34.800781 33 " clip-rule="nonzero"/></clipPath></defs><g clip-path="url(#09456feb2f)"><path fill="#000000" d="M 261.683594 155.457031 L 252.5 192.289062 C 251.996094 194.308594 250.050781 195.628906 247.992188 195.34375 L 224.292969 192.117188 C 222.738281 191.90625 221.238281 192.628906 220.386719 193.941406 C 214.5 202.957031 206.976562 210.917969 198 217.25 C 196.722656 218.152344 196.054688 219.675781 196.316406 221.214844 L 200.351562 244.679688 C 200.710938 246.730469 199.460938 248.714844 197.457031 249.292969 L 160.96875 259.757812 C 158.964844 260.332031 156.855469 259.320312 156.070312 257.390625 C 153.734375 251.675781 149.058594 240.234375 147.046875 235.316406 C 146.453125 233.863281 145.09375 232.957031 143.527344 232.875 C 132.558594 232.257812 121.953125 229.492188 112.191406 224.96875 C 110.773438 224.3125 109.121094 224.5 107.914062 225.496094 L 89.523438 240.796875 C 87.929688 242.125 85.578125 242.042969 84.078125 240.59375 L 56.769531 214.21875 C 55.269531 212.777344 55.101562 210.433594 56.382812 208.785156 L 70.984375 189.929688 C 71.941406 188.6875 72.078125 187.035156 71.363281 185.640625 C 66.363281 175.765625 63.433594 165.574219 62.453125 154.558594 C 62.316406 152.992188 61.328125 151.664062 59.851562 151.121094 L 37.476562 142.867188 C 35.523438 142.144531 34.425781 140.070312 34.929688 138.050781 L 44.117188 101.21875 C 44.617188 99.199219 46.5625 97.878906 48.625 98.160156 L 72.320312 101.386719 C 73.878906 101.597656 75.378906 100.878906 76.230469 99.5625 C 82.105469 90.546875 89.636719 82.578125 98.605469 76.246094 C 99.886719 75.347656 100.550781 73.824219 100.292969 72.28125 L 96.253906 48.820312 C 95.898438 46.769531 97.144531 44.78125 99.148438 44.207031 L 135.640625 33.742188 C 137.640625 33.164062 139.75 34.195312 140.542969 36.117188 L 149.558594 58.152344 C 150.152344 59.601562 151.53125 60.535156 153.085938 60.625 C 155.007812 60.730469 156.90625 60.988281 158.792969 61.222656 C 156.671875 68.714844 155.925781 76.585938 156.792969 84.46875 C 156.921875 85.675781 156.53125 86.875 155.679688 87.734375 L 145.15625 98.265625 C 116.199219 100.132812 94.105469 127.257812 100.898438 157.890625 C 104.863281 175.765625 119.296875 190.195312 137.171875 194.160156 C 167.800781 200.957031 194.9375 178.863281 196.792969 149.894531 L 207.316406 139.371094 C 208.183594 138.503906 209.382812 138.105469 210.601562 138.246094 C 218.53125 139.113281 226.273438 138.414062 233.796875 136.300781 C 233.902344 137.183594 234.078125 138.074219 234.152344 138.949219 C 234.289062 140.515625 235.28125 141.84375 236.753906 142.386719 L 259.132812 150.640625 C 261.09375 151.363281 262.1875 153.4375 261.683594 155.457031 Z M 261.683594 155.457031 " fill-opacity="1" fill-rule="nonzero"/></g><path fill="#000000" d="M 259.441406 63.429688 C 264.726562 78.988281 261.183594 96.945312 248.753906 109.375 C 236.867188 121.257812 219.933594 124.972656 204.851562 120.644531 C 204.027344 120.410156 203.140625 120.609375 202.527344 121.226562 L 144.734375 179.015625 C 129.65625 177.3125 117.738281 165.394531 116.035156 150.316406 L 173.824219 92.527344 C 174.433594 91.917969 174.644531 91.035156 174.410156 90.199219 C 170.078125 75.121094 173.792969 58.191406 185.679688 46.296875 C 198.105469 33.871094 216.074219 30.328125 231.625 35.613281 C 233.292969 36.179688 233.722656 38.386719 232.472656 39.632812 L 201.089844 71.019531 C 200.441406 71.667969 200.214844 72.640625 200.507812 73.507812 L 205.402344 88.117188 C 205.648438 88.839844 206.214844 89.40625 206.9375 89.648438 L 221.546875 94.546875 C 222.421875 94.835938 223.386719 94.609375 224.035156 93.960938 L 255.417969 62.578125 C 256.667969 61.328125 258.871094 61.757812 259.441406 63.429688 Z M 259.441406 63.429688 " fill-opacity="1" fill-rule="nonzero"/></svg>