<svg xmlns="http://www.w3.org/2000/svg" version="1.1" viewBox="-5.0 -10.0 190.0 135.0">
<g>
    <path d="m50.246 24.43c-14.164 0-25.684 11.523-25.684 25.684 0 14.16 11.523 25.684 25.684 25.684s25.684-11.523 25.684-25.684c0-14.164-11.523-25.684-25.684-25.684zm-3.4102 23.242h6.8164c2.4727 0 4.7969 0.96094 6.5469 2.7109 1.75 1.7461 2.7109 4.0742 2.7109 6.5469 0 5.1055-4.1562 9.2578-9.2578 9.2578h-0.96875v4.2344h-4.8828v-4.2344h-0.96875c-5.1055 0-9.2578-4.1562-9.2578-9.2578h4.8828c0 2.4141 1.9648 4.375 4.375 4.375h6.8164c2.4141 0 4.375-1.9648 4.375-4.375 0-1.1719-0.45313-2.2695-1.2812-3.0938-0.82813-0.82813-1.9258-1.2812-3.0938-1.2812h-6.8125c-5.1055 0-9.2578-4.1562-9.2578-9.2578 0-2.4766 0.96484-4.8008 2.7109-6.5469 1.75-1.7461 4.0742-2.7109 6.5469-2.7109h0.96875v-4.2344h4.8828v4.2344h0.96875c5.1055 0 9.2578 4.1562 9.2578 9.2578h-4.8828c0-2.4141-1.9648-4.375-4.375-4.375l-6.8203-0.007813c-1.168 0-2.2656 0.45313-3.0938 1.2812-0.82813 0.82422-1.2812 1.9258-1.2812 3.0938 0 2.418 1.9609 4.3828 4.375 4.3828zm38.859-12.539c-1.9375-4.582-4.7109-8.6953-8.2461-12.23-3.5352-3.5352-7.6484-6.3086-12.23-8.2461-4.7422-2.0078-9.7812-3.0234-14.977-3.0234-5.1953 0-10.234 1.0156-14.977 3.0234-4.582 1.9375-8.6953 4.7109-12.23 8.2461s-6.3086 7.6484-8.2461 12.23c-2.0078 4.7422-3.0234 9.7812-3.0234 14.977s1.0156 10.234 3.0234 14.977c1.9375 4.582 4.7109 8.6953 8.2461 12.23s7.6484 6.3086 12.23 8.2461c4.7422 2.0078 9.7812 3.0234 14.977 3.0234 5.1953 0 10.234-1.0156 14.977-3.0234 4.582-1.9375 8.6953-4.7109 12.23-8.2461 3.5352-3.5352 6.3086-7.6484 8.2461-12.23 2.0078-4.7422 3.0234-9.7812 3.0234-14.977 0.003906-5.1914-1.0156-10.23-3.0234-14.977zm-13.836 36.594c-5.7734 5.7734-13.449 8.9531-21.613 8.9531-8.1641 0-15.84-3.1797-21.613-8.9531-5.7734-5.7734-8.9531-13.449-8.9531-21.613 0-8.1641 3.1797-15.84 8.9531-21.613 5.7734-5.7734 13.449-8.9531 21.613-8.9531 8.1641 0 15.84 3.1797 21.613 8.9531s8.9531 13.449 8.9531 21.613c0 8.1641-3.1797 15.84-8.9531 21.613z"/>
</g>
<g transform="translate(80,0)">
    <path d="m50.246 24.43c-14.164 0-25.684 11.523-25.684 25.684 0 14.16 11.523 25.684 25.684 25.684s25.684-11.523 25.684-25.684c0-14.164-11.523-25.684-25.684-25.684zm-3.4102 23.242h6.8164c2.4727 0 4.7969 0.96094 6.5469 2.7109 1.75 1.7461 2.7109 4.0742 2.7109 6.5469 0 5.1055-4.1562 9.2578-9.2578 9.2578h-0.96875v4.2344h-4.8828v-4.2344h-0.96875c-5.1055 0-9.2578-4.1562-9.2578-9.2578h4.8828c0 2.4141 1.9648 4.375 4.375 4.375h6.8164c2.4141 0 4.375-1.9648 4.375-4.375 0-1.1719-0.45313-2.2695-1.2812-3.0938-0.82813-0.82813-1.9258-1.2812-3.0938-1.2812h-6.8125c-5.1055 0-9.2578-4.1562-9.2578-9.2578 0-2.4766 0.96484-4.8008 2.7109-6.5469 1.75-1.7461 4.0742-2.7109 6.5469-2.7109h0.96875v-4.2344h4.8828v4.2344h0.96875c5.1055 0 9.2578 4.1562 9.2578 9.2578h-4.8828c0-2.4141-1.9648-4.375-4.375-4.375l-6.8203-0.007813c-1.168 0-2.2656 0.45313-3.0938 1.2812-0.82813 0.82422-1.2812 1.9258-1.2812 3.0938 0 2.418 1.9609 4.3828 4.375 4.3828zm38.859-12.539c-1.9375-4.582-4.7109-8.6953-8.2461-12.23-3.5352-3.5352-7.6484-6.3086-12.23-8.2461-4.7422-2.0078-9.7812-3.0234-14.977-3.0234-5.1953 0-10.234 1.0156-14.977 3.0234-4.582 1.9375-8.6953 4.7109-12.23 8.2461s-6.3086 7.6484-8.2461 12.23c-2.0078 4.7422-3.0234 9.7812-3.0234 14.977s1.0156 10.234 3.0234 14.977c1.9375 4.582 4.7109 8.6953 8.2461 12.23s7.6484 6.3086 12.23 8.2461c4.7422 2.0078 9.7812 3.0234 14.977 3.0234 5.1953 0 10.234-1.0156 14.977-3.0234 4.582-1.9375 8.6953-4.7109 12.23-8.2461 3.5352-3.5352 6.3086-7.6484 8.2461-12.23 2.0078-4.7422 3.0234-9.7812 3.0234-14.977 0.003906-5.1914-1.0156-10.23-3.0234-14.977zm-13.836 36.594c-5.7734 5.7734-13.449 8.9531-21.613 8.9531-8.1641 0-15.84-3.1797-21.613-8.9531-5.7734-5.7734-8.9531-13.449-8.9531-21.613 0-8.1641 3.1797-15.84 8.9531-21.613 5.7734-5.7734 13.449-8.9531 21.613-8.9531 8.1641 0 15.84 3.1797 21.613 8.9531s8.9531 13.449 8.9531 21.613c0 8.1641-3.1797 15.84-8.9531 21.613z"/>
</g>
</svg>